<?xml version="1.0" standalone="no"?><!DOCTYPE svg PUBLIC "-//W3C//DTD SVG 1.1//EN" "http://www.w3.org/Graphics/SVG/1.1/DTD/svg11.dtd"><svg t="1692946360477" class="icon" viewBox="0 0 2618 1024" version="1.1" xmlns="http://www.w3.org/2000/svg" p-id="14673" xmlns:xlink="http://www.w3.org/1999/xlink" width="511.328125" height="200"><path d="M1246.955016 103.868852a145.147803 145.147803 0 0 0-108.636327 50.360656c-42.479213 58.258885-11.53259 139.582951 11.53259 185.713312 23.06518 46.734689 127.446033 213.025574 131.693114 216.659934 3.642754 3.642754 7.889836 3.642754 7.889837 0s11.53259-247.606557 3.642754-305.873836a769.384918 769.384918 0 0 0-46.163935-146.885246z m-228.192524 112.279082c-7.889836 0-61.901639 58.258885-69.791476 108.636328s19.422426 89.213902 81.324066 131.693115c65.544393 46.734689 216.659934 127.446033 220.302688 123.811672 3.642754-7.889836-58.258885-115.921836-112.279081-197.245901-54.011803-81.928393-111.666361-166.895213-119.556197-166.895214z m19.422426 495.213115c46.734689 19.422426 120.168918-27.312262 139.582951-38.844852l54.011803-38.844853-263.394623 7.889836a201.895869 201.895869 0 0 0 69.799869 69.816656z m7.889836-213.025574c-46.734689-23.06518-143.225705-77.076984-147.472787-77.076983s-18.809705 69.791475 12.136918 120.168918 89.213902 65.544393 115.921836 69.791475c30.955016 3.642754 208.770098 3.642754 208.770099 0-3.642754-4.247082-143.225705-89.213902-189.356066-112.88341z m433.328262-344.131147a144.174164 144.174164 0 0 0-108.636327-50.360656 617.597902 617.597902 0 0 0-42.479214 143.225705c-7.889836 58.258885 3.642754 305.873836 3.642755 305.873836 0 3.642754 3.642754 3.642754 7.889836 0 3.642754-3.642754 112.279082-174.180721 131.701508-216.659934 19.422426-43.091934 50.360656-123.811672 7.889836-182.070558z m243.367869 267.037377c-3.642754 0-100.721311 54.011803-146.885246 77.681311-46.734689 23.06518-185.713311 108.636328-189.356065 112.279082 0 3.642754 177.823475 3.642754 208.770098 0 27.312262-3.642754 84.96682-19.422426 115.921836-69.791475 27.312262-50.360656 11.53259-120.168918 11.53259-120.168918z m-282.254688 251.291279c19.422426 11.53259 92.856656 58.258885 139.582951 38.844852a163.512656 163.512656 0 0 0 69.791475-73.434229l-263.394623-7.889837z m228.234492-347.748722c-3.642754-50.360656-61.901639-108.636328-69.791476-108.636328s-73.43423 84.96682-123.811672 166.290886-112.279082 189.960393-108.032 197.245901c3.642754 7.889836 154.758295-77.681311 220.302689-123.811672 61.910033-42.487607 84.975213-77.076984 81.332459-131.088787z m0 0" fill="#EA020A" p-id="14674"></path><path d="M894.959213 940.174689V797.553311h30.384262v56.429115h61.90164V797.544918h30.342295v142.621377h-30.375869v-61.901639h-61.868066v61.901639z m159.005377-52.803148V796.907016h30.350689v91.639607a31.895082 31.895082 0 0 0 7.285508 23.06518 32.49941 32.49941 0 0 0 23.669508 7.285508 36.268066 36.268066 0 0 0 24.273836-6.714754 30.896262 30.896262 0 0 0 7.285508-23.06518V797.553311h29.737968v94.678033a47.213115 47.213115 0 0 1-15.779673 37.627804 72.544525 72.544525 0 0 1-45.517639 13.353967c-20.631082 0-35.806426-4.247082-46.163934-13.353967a55.128131 55.128131 0 0 1-15.175345-42.479214z m142.017049 52.803148l49.160394-142.621378h38.232131l48.556066 142.621378h-30.342296l-10.315541-31.559345h-55.83318l-10.315541 31.559345z m46.734689-54.011804h41.270557l-20.631082-63.723016z m131.088787 54.011804l-41.874885-142.621378h29.737967l23.06518 81.928394c0.604328 3.030033 1.821377 7.285508 3.038426 12.741246s2.425705 12.136918 3.642754 18.818098a153.6 153.6 0 0 1 5.464132-27.312262 38.609836 38.609836 0 0 1 1.217049-4.247082l23.669508-83.145443h26.095213l22.452459 81.928394c0.604328 3.030033 1.821377 7.285508 3.038426 12.741246s2.425705 12.136918 3.642754 18.809705a121.570623 121.570623 0 0 1 2.425705-14.562623c1.217049-4.85141 2.425705-10.911475 4.247082-16.384l23.669508-83.145443h29.737968l-41.874886 142.621377h-33.985049l-20.026754-71.612852c-1.821377-6.714754-3.038426-12.741246-4.247082-17.62623a135.43659 135.43659 0 0 1-2.425705-13.958295c-1.217049 6.714754-1.821377 12.741246-3.038426 18.205377s-2.425705 9.711213-3.038426 13.353967l-20.631082 72.183607h-34.001836z m184.496262 0V797.553311h105.597902v23.065181h-75.255607v33.985049h54.624525v23.06518h-54.624525v38.844853h78.294033v24.273836h-108.636328z m136.552918 0V797.553311h30.955016v142.621378z" p-id="14675"></path></svg>